<svg xmlns="http://www.w3.org/2000/svg" viewBox="7.44 20.86 1196.67 354.49" width="1196.67" height="354.49" role="img" aria-label="Wevenu">
  
  <path d="M293.20 323.96L272.11 323.96Q268.59 323.96 267.57 320.73L267.57 320.73L235.05 242.07L202.24 318.83Q200.63 322.34 198.87 323.15Q197.11 323.96 193.74 323.96L193.74 323.96L172.50 323.96Q170.74 323.96 169.72 323.15Q168.69 322.34 167.96 320.59L167.96 320.59L92.08 138.07Q90.47 134.26 87.39 131.69Q84.32 129.13 80.87 127.59Q77.43 126.05 74.28 125.25Q71.13 124.44 69.38 124.15L69.38 124.15Q68.35 124.00 66.88 123.64Q65.42 123.27 63.96 122.98Q62.49 122.69 61.39 122.47Q60.29 122.25 60 122.25L60 122.25Q58.83 122.25 58.83 121.07L58.83 121.07L58.83 114.63Q58.83 113.46 60 113.46L60 113.46L156.68 113.46Q157.56 113.46 157.71 113.82Q157.85 114.19 157.85 114.63L157.85 114.63L157.85 121.07Q157.85 121.37 157.63 121.81Q157.41 122.25 156.68 122.25L156.68 122.25L154.04 122.25Q148.33 122.25 145.11 123.56Q141.88 124.88 140.20 126.86Q138.52 128.84 138.15 131.04Q137.78 133.23 137.78 134.99L137.78 134.99Q137.78 138.21 138.74 141.00Q139.69 143.78 140.42 146.86L140.42 146.86L193.01 273.56Q193.74 275.03 195.79 275.03L195.79 275.03Q196.67 275.03 197.11 274.59Q197.55 274.15 197.99 273.42L197.99 273.42L223.33 213.65L191.25 136.60Q189.35 132.06 185.39 128.54Q181.44 125.03 177.77 124.15L177.77 124.15Q175.72 123.42 173.09 122.83Q170.45 122.25 169.72 122.25L169.72 122.25Q168.54 122.25 168.54 121.07L168.54 121.07L168.54 114.63Q168.54 113.46 169.72 113.46L169.72 113.46L308.88 113.46Q309.76 113.46 309.90 113.90Q310.05 114.34 310.05 114.63L310.05 114.63L310.05 121.07Q310.05 121.51 309.90 121.88Q309.76 122.25 308.88 122.25L308.88 122.25L303.46 122.25Q298.18 122.25 294.16 123.71Q290.13 125.18 286.90 128.25Q283.68 131.33 280.97 136.02Q278.26 140.70 275.63 147.00L275.63 147.00L257.61 188.90L292.62 273.13Q293.35 274.59 295.40 274.59L295.40 274.59Q296.87 274.59 297.60 272.98L297.60 272.98L356.04 136.02Q357.80 131.91 357.80 129.13L357.80 129.13Q357.80 125.32 354.51 123.78Q351.21 122.25 342.28 122.25L342.28 122.25L333.19 122.25Q332.02 122.25 332.02 121.07L332.02 121.07L332.02 114.63Q332.02 114.34 332.17 113.90Q332.31 113.46 333.19 113.46L333.19 113.46L402.77 113.46Q403.65 113.46 403.80 113.90Q403.95 114.34 403.95 114.63L403.95 114.63L403.95 121.07Q403.95 121.51 403.80 121.88Q403.65 122.25 402.77 122.25L402.77 122.25L395.89 122.25Q392.37 122.25 389.74 123.64Q387.10 125.03 384.83 127.89Q382.56 130.74 380.43 134.99Q378.31 139.24 375.97 144.95L375.97 144.95L301.70 318.83Q300.09 322.34 298.33 323.15Q296.57 323.96 293.20 323.96L293.20 323.96ZM245.74 160.63L257.61 133.09Q258.63 130.74 258.85 129.57Q259.07 128.40 259.07 126.93L259.07 126.93Q259.07 122.25 249.11 122.25L249.11 122.25Q245.01 122.25 242.37 123.20Q239.74 124.15 238.20 125.54Q236.66 126.93 236.07 128.69Q235.49 130.45 235.49 132.06L235.49 132.06Q235.49 133.67 235.93 135.43Q236.37 137.19 237.47 140.19Q238.56 143.19 240.54 148.03Q242.52 152.86 245.74 160.63L245.74 160.63ZM372.16 260.67L372.16 260.67Q372.16 243.54 376.99 229.11Q381.83 214.68 390.91 204.13Q399.99 193.58 413.10 187.72Q426.21 181.87 442.91 181.87L442.91 181.87Q447.89 181.87 451.85 182.52Q455.80 183.18 459.10 184.28Q462.39 185.38 465.25 186.92Q468.11 188.46 471.04 190.21L471.04 190.21Q474.40 191.97 478.73 196.51Q483.05 201.05 486.86 207.06Q490.66 213.07 493.30 219.88Q495.94 226.69 495.94 232.99L495.94 232.99Q495.94 235.04 495.13 237.46Q494.33 239.87 492.42 239.87L492.42 239.87L406.00 239.87Q404.53 239.87 404.02 242.51Q403.51 245.15 403.51 248.96L403.51 248.96Q403.51 261.85 407.24 271.88Q410.98 281.91 417.28 288.87Q423.57 295.83 431.78 299.42Q439.98 303.01 449.06 303.01L449.06 303.01Q454.78 303.01 460.05 301.47Q465.32 299.93 470.16 297.44Q474.99 294.95 479.24 291.88Q483.49 288.80 487.29 285.72L487.29 285.72Q488.17 285.43 488.47 285.43L488.47 285.43Q488.91 285.43 489.64 286.16L489.64 286.16Q490.96 287.33 492.28 288.87Q493.59 290.41 494.33 291.44L494.33 291.44Q494.77 291.88 494.77 292.31L494.77 292.31Q494.77 292.75 494.18 293.34L494.18 293.34Q489.35 299.05 482.31 304.55Q475.28 310.04 467.30 314.36Q459.32 318.68 450.97 321.32Q442.62 323.96 435.15 323.96L435.15 323.96Q420.06 323.96 408.34 318.46Q396.62 312.97 388.56 304.03Q380.51 295.10 376.33 283.75Q372.16 272.39 372.16 260.67ZM410.24 228.59L458.14 228.59Q461.95 228.59 461.95 225.22L461.95 225.22Q461.95 219.51 460.12 214.46Q458.29 209.40 454.92 205.52Q451.55 201.64 446.79 199.44Q442.03 197.25 436.17 197.25L436.17 197.25Q429.14 197.25 423.87 200.25Q418.59 203.25 414.93 207.50Q411.27 211.75 409.44 216.29Q407.61 220.83 407.61 224.05L407.61 224.05Q407.61 226.54 408.34 227.57Q409.07 228.59 410.24 228.59L410.24 228.59ZM573.43 323.96L573.43 323.96Q572.26 323.96 571.45 322.27Q570.64 320.59 570.21 319.41L570.21 319.41L530.51 211.75Q528.02 205.01 523.33 199.96Q518.64 194.90 511.90 192.71L511.90 192.71Q510.88 192.41 509.41 192.27Q507.95 192.12 506.56 191.83Q505.17 191.53 504.21 190.80Q503.26 190.07 503.26 188.46L503.26 188.46Q503.26 186.99 503.99 185.75Q504.73 184.50 506.48 184.50L506.48 184.50L583.54 184.50Q584.41 184.50 584.71 186.04Q585 187.58 585 188.02L585 188.02Q585 190.07 583.39 190.73Q581.78 191.39 579.29 191.53Q576.80 191.68 574.01 191.61Q571.23 191.53 568.74 192.27Q566.25 193.00 564.64 194.83Q563.03 196.66 563.03 200.47L563.03 200.47Q563.03 200.91 563.47 202.30Q563.91 203.69 563.91 203.98L563.91 203.98L593.06 283.67Q593.35 284.40 594.01 285.80Q594.67 287.19 595.84 287.19L595.84 287.19Q596.43 287.19 597.08 286.53Q597.74 285.87 598.18 284.99Q598.62 284.11 598.92 283.31Q599.21 282.50 599.36 282.21L599.36 282.21Q606.24 264.63 610.93 252.54Q615.62 240.46 618.69 232.40Q621.77 224.35 623.45 219.73Q625.14 215.12 625.87 212.63Q626.60 210.14 626.75 209.04Q626.89 207.94 626.89 206.91L626.89 206.91Q626.89 201.79 623.67 198.49Q620.45 195.20 615.76 193.44L615.76 193.44Q614.44 193.14 612.47 193.14Q610.49 193.14 608.66 192.85Q606.83 192.56 605.43 191.68Q604.04 190.80 604.04 188.75L604.04 188.75Q604.04 187.58 605.21 186.41Q606.39 185.23 607.56 185.23L607.56 185.23L666.01 185.23Q666.88 185.38 667.10 186.33Q667.32 187.29 667.32 188.90L667.32 188.90Q667.32 189.92 667.03 190.43Q666.74 190.95 665.64 191.31Q664.54 191.68 662.56 191.97Q660.59 192.27 657.36 192.85L657.36 192.85Q654.14 193.44 651.72 195.85Q649.31 198.27 647.33 201.49Q645.35 204.72 643.89 208.16Q642.42 211.60 641.10 214.38L641.10 214.38Q631.14 239.87 624.33 257.60Q617.52 275.32 612.98 287.04Q608.44 298.76 605.87 305.28Q603.31 311.80 601.99 315.02Q600.67 318.24 600.38 318.97Q600.09 319.71 600.09 319.71L600.09 319.71Q599.65 320.73 598.84 322.34Q598.04 323.96 596.87 323.96L596.87 323.96L573.43 323.96ZM665.42 260.67L665.42 260.67Q665.42 243.54 670.25 229.11Q675.09 214.68 684.17 204.13Q693.25 193.58 706.36 187.72Q719.47 181.87 736.17 181.87L736.17 181.87Q741.15 181.87 745.11 182.52Q749.06 183.18 752.36 184.28Q755.65 185.38 758.51 186.92Q761.37 188.46 764.30 190.21L764.30 190.21Q767.67 191.97 771.99 196.51Q776.31 201.05 780.12 207.06Q783.93 213.07 786.56 219.88Q789.20 226.69 789.20 232.99L789.20 232.99Q789.20 235.04 788.39 237.46Q787.59 239.87 785.68 239.87L785.68 239.87L699.26 239.87Q697.79 239.87 697.28 242.51Q696.77 245.15 696.77 248.96L696.77 248.96Q696.77 261.85 700.50 271.88Q704.24 281.91 710.54 288.87Q716.84 295.83 725.04 299.42Q733.24 303.01 742.32 303.01L742.32 303.01Q748.04 303.01 753.31 301.47Q758.58 299.93 763.42 297.44Q768.25 294.95 772.50 291.88Q776.75 288.80 780.56 285.72L780.56 285.72Q781.44 285.43 781.73 285.43L781.73 285.43Q782.17 285.43 782.90 286.16L782.90 286.16Q784.22 287.33 785.54 288.87Q786.86 290.41 787.59 291.44L787.59 291.44Q788.03 291.88 788.03 292.31L788.03 292.31Q788.03 292.75 787.44 293.34L787.44 293.34Q782.61 299.05 775.58 304.55Q768.54 310.04 760.56 314.36Q752.58 318.68 744.23 321.32Q735.88 323.96 728.41 323.96L728.41 323.96Q713.32 323.96 701.60 318.46Q689.88 312.97 681.83 304.03Q673.77 295.10 669.59 283.75Q665.42 272.39 665.42 260.67ZM703.51 228.59L751.41 228.59Q755.21 228.59 755.21 225.22L755.21 225.22Q755.21 219.51 753.38 214.46Q751.55 209.40 748.18 205.52Q744.81 201.64 740.05 199.44Q735.29 197.25 729.43 197.25L729.43 197.25Q722.40 197.25 717.13 200.25Q711.86 203.25 708.19 207.50Q704.53 211.75 702.70 216.29Q700.87 220.83 700.87 224.05L700.87 224.05Q700.87 226.54 701.60 227.57Q702.33 228.59 703.51 228.59L703.51 228.59ZM799.01 200.76L847.50 177.91Q848.09 177.62 848.75 177.32Q849.40 177.03 849.70 177.03L849.70 177.03Q852.19 177.03 852.19 180.55L852.19 180.55L852.19 203.40Q852.63 204.86 853.36 204.86L853.36 204.86Q854.09 204.86 854.53 204.79Q854.97 204.72 855.70 204.28L855.70 204.28Q865.08 199.44 871.60 196.15Q878.12 192.85 882.88 190.58Q887.64 188.31 891.37 187.07Q895.11 185.82 898.92 185.16Q902.72 184.50 907.27 184.36Q911.81 184.21 918.40 184.21L918.40 184.21Q925.58 184.21 930.85 187.29Q936.12 190.36 939.71 195.42Q943.30 200.47 945.57 206.99Q947.84 213.51 949.01 220.32Q950.19 227.13 950.63 233.79Q951.06 240.46 951.06 245.88L951.06 245.88Q951.06 251.01 950.84 255.40Q950.63 259.79 950.41 265.00Q950.19 270.20 949.97 276.79Q949.75 283.38 949.75 292.75L949.75 292.75Q949.75 297.15 951.36 300.08Q952.97 303.01 955.53 304.91Q958.10 306.82 961.17 307.77Q964.25 308.72 967.18 309.31Q970.11 309.89 972.52 310.26Q974.94 310.63 976.26 311.21L976.26 311.21Q976.85 311.50 977.29 313.12Q977.72 314.73 977.72 315.46L977.72 315.46Q977.72 316.34 977.43 318.02Q977.14 319.71 976.26 320L976.26 320L894.52 320Q893.64 319.71 893.35 318.02Q893.06 316.34 893.06 315.46L893.06 315.46Q893.06 314.73 893.50 313.12Q893.94 311.50 894.52 311.21L894.52 311.21Q896.43 310.33 899.58 309.82Q902.72 309.31 906.02 307.55Q909.32 305.79 912.03 302.20Q914.74 298.61 915.62 291.58L915.62 291.58Q915.91 289.38 916.13 287.48Q916.35 285.58 916.49 283.60Q916.64 281.62 916.71 279.28Q916.79 276.93 916.79 273.86L916.79 273.86Q916.79 267.27 916.64 259.79Q916.49 252.32 916.49 243.10L916.49 243.10Q916.49 235.92 915.83 228.89Q915.18 221.86 912.61 216.29Q910.05 210.72 905.07 207.21Q900.09 203.69 891.30 203.69L891.30 203.69Q888.22 203.69 885.81 204.06Q883.39 204.42 879.95 205.74Q876.50 207.06 870.94 209.70Q865.37 212.33 856.00 216.88L856.00 216.88Q854.82 217.61 853.58 218.56Q852.33 219.51 852.19 220.98L852.19 220.98L852.19 292.75Q852.19 299.35 854.82 302.79Q857.46 306.23 860.98 307.77Q864.49 309.31 868.01 309.82Q871.52 310.33 873.43 311.21L873.43 311.21Q874.01 311.50 874.45 313.12Q874.89 314.73 874.89 315.46L874.89 315.46Q874.89 316.34 874.60 318.02Q874.31 319.71 873.43 320L873.43 320L796.96 320Q796.08 319.71 795.79 318.02Q795.50 316.34 795.50 315.46L795.50 315.46Q795.50 314.73 795.94 313.12Q796.38 311.50 796.96 311.21L796.96 311.21Q798.87 310.33 802.38 309.82Q805.90 309.31 809.41 307.77Q812.93 306.23 815.57 302.79Q818.20 299.35 818.20 292.75L818.20 292.75L818.20 218.34Q818.20 214.82 816.30 212.85Q814.39 210.87 811.46 209.84Q808.54 208.82 805.17 208.16Q801.80 207.50 798.72 206.62L798.72 206.62Q797.84 206.33 797.33 205.82Q796.82 205.30 796.82 203.69L796.82 203.69Q796.82 202.96 797.26 202.23Q797.70 201.49 799.01 200.76L799.01 200.76ZM1004.68 213.07L1004.68 213.07Q1004.24 208.82 1000.80 205.82Q997.35 202.81 993.40 201.93L993.40 201.93Q992.37 201.64 991.13 201.57Q989.88 201.49 988.86 201.27Q987.83 201.05 987.17 200.54Q986.51 200.03 986.51 198.71L986.51 198.71Q986.51 197.54 986.88 196.66Q987.25 195.78 988.86 195.34L988.86 195.34L1033.54 182.45Q1034.41 182.16 1035.37 182.01Q1036.32 181.87 1037.20 181.87L1037.20 181.87Q1038.66 181.87 1038.66 184.36L1038.66 184.36L1038.66 283.23Q1038.66 288.21 1040.93 292.24Q1043.20 296.27 1046.87 299.05Q1050.53 301.84 1055.21 303.30Q1059.90 304.77 1064.88 304.77L1064.88 304.77Q1068.40 304.77 1072.21 303.59Q1076.02 302.42 1079.53 300.59Q1083.05 298.76 1086.12 296.34Q1089.20 293.93 1091.10 291.29L1091.10 291.29L1091.10 212.92Q1090.66 208.67 1087.22 205.67Q1083.78 202.67 1079.82 201.79L1079.82 201.79Q1078.80 201.49 1077.55 201.42Q1076.31 201.35 1075.28 201.13Q1074.26 200.91 1073.60 200.40Q1072.94 199.88 1072.94 198.56L1072.94 198.56Q1072.94 197.39 1073.31 196.51Q1073.67 195.63 1075.28 195.20L1075.28 195.20L1119.96 182.45Q1120.84 182.16 1121.79 182.01Q1122.74 181.87 1123.62 181.87L1123.62 181.87Q1125.09 181.87 1125.09 183.18L1125.09 183.18L1125.09 284.26Q1125.82 290.70 1128.75 293.49Q1131.68 296.27 1138.27 296.27L1138.27 296.27L1146.77 295.68Q1147.35 295.68 1147.50 297.66Q1147.65 299.64 1147.65 300.52L1147.65 300.52Q1147.65 300.81 1147.28 302.42Q1146.91 304.03 1145.45 304.77L1145.45 304.77L1100.92 323.08Q1100.63 323.22 1099.45 323.59Q1098.28 323.96 1098.13 323.96L1098.13 323.96Q1097.11 323.96 1096.89 322.71Q1096.67 321.46 1096.67 320.29L1096.67 320.29L1096.67 306.23Q1096.23 305.64 1095.21 305.64L1095.21 305.64Q1094.91 305.64 1094.62 305.64Q1094.33 305.64 1094.33 305.94L1094.33 305.94L1070.89 317.36Q1067.67 318.54 1064.88 319.63Q1062.10 320.73 1059.39 321.76Q1056.68 322.78 1053.60 323.37Q1050.53 323.96 1046.87 323.96L1046.87 323.96Q1040.71 323.96 1033.32 322.71Q1025.92 321.46 1019.55 318.75Q1013.17 316.04 1008.93 311.80Q1004.68 307.55 1004.68 301.54L1004.68 301.54L1004.68 213.07Z" fill="#4F5F4F" />
  <g transform="rotate(0 1067.08 157.89)"><ellipse cx="1067.08" cy="115.06" rx="17.13" ry="44.53" fill="#FFFFFF" stroke="#C7BAA3" stroke-width="4.28" /></g>
  <g transform="rotate(32.73 1067.08 157.89)"><ellipse cx="1067.08" cy="115.06" rx="17.13" ry="44.53" fill="#FFFFFF" stroke="#C7BAA3" stroke-width="4.28" /></g>
  <g transform="rotate(65.45 1067.08 157.89)"><ellipse cx="1067.08" cy="115.06" rx="17.13" ry="44.53" fill="#FFFFFF" stroke="#C7BAA3" stroke-width="4.28" /></g>
  <g transform="rotate(98.18 1067.08 157.89)"><ellipse cx="1067.08" cy="115.06" rx="17.13" ry="44.53" fill="#FFFFFF" stroke="#C7BAA3" stroke-width="4.28" /></g>
  <g transform="rotate(130.91 1067.08 157.89)"><ellipse cx="1067.08" cy="115.06" rx="17.13" ry="44.53" fill="#FFFFFF" stroke="#C7BAA3" stroke-width="4.28" /></g>
  <g transform="rotate(163.64 1067.08 157.89)"><ellipse cx="1067.08" cy="115.06" rx="17.13" ry="44.53" fill="#FFFFFF" stroke="#C7BAA3" stroke-width="4.28" /></g>
  <g transform="rotate(196.36 1067.08 157.89)"><ellipse cx="1067.08" cy="115.06" rx="17.13" ry="44.53" fill="#FFFFFF" stroke="#C7BAA3" stroke-width="4.28" /></g>
  <g transform="rotate(229.09 1067.08 157.89)"><ellipse cx="1067.08" cy="115.06" rx="17.13" ry="44.53" fill="#FFFFFF" stroke="#C7BAA3" stroke-width="4.28" /></g>
  <g transform="rotate(261.82 1067.08 157.89)"><ellipse cx="1067.08" cy="115.06" rx="17.13" ry="44.53" fill="#FFFFFF" stroke="#C7BAA3" stroke-width="4.28" /></g>
  <g transform="rotate(294.55 1067.08 157.89)"><ellipse cx="1067.08" cy="115.06" rx="17.13" ry="44.53" fill="#FFFFFF" stroke="#C7BAA3" stroke-width="4.28" /></g>
  <g transform="rotate(327.27 1067.08 157.89)"><ellipse cx="1067.08" cy="115.06" rx="17.13" ry="44.53" fill="#FFFFFF" stroke="#C7BAA3" stroke-width="4.28" /></g>
  <circle cx="1067.08" cy="157.89" r="23.98" fill="#B7AEA1" />
</svg>