<svg xmlns="http://www.w3.org/2000/svg" viewBox="32.5 37.7 1042.57 455.19" width="1042.57" height="455.19" role="img" aria-label="Wevenu">
  <g>
    <path d="M 396.6 362.71 C 508.88 381.82 546.3 378.95 639.86 378.95 C 817.62 378.95 956.09 371.31 1002.87 363.67 C 1030.94 354.11 1040.3 286.27 1029.07 255.69 C 1012.23 217.47 1003.81 196.68 957.03 173.75" fill="none" stroke="#5D6F5D" stroke-width="3.82" stroke-linecap="round" />
    <path d="M0 0 C11.04 -13.19 10.03 -31.65 0 -43.95 C-10.03 -31.65 -11.04 -13.19 0 0 Z" fill="#6F8B6B" transform="translate(1040.3 248.05) rotate(64)" />
    <path d="M0 0 C9.46 -10.89 8.6 -26.14 0 -36.31 C-8.6 -26.14 -9.46 -10.89 0 0 Z" fill="#6F8B6B" transform="translate(1014.1 196.26) rotate(32)" />
    
  <g fill="#FFFFFF" stroke="#DED7CB" stroke-width="1.4" stroke-linejoin="round">
    <path d="M0 0 C-12.44 -18.96 -12.44 -50.95 0 -59.24 C12.44 -50.95 12.44 -18.96 0 0 Z" transform="translate(953.29 142.95) rotate(0)" />
    <path d="M0 0 C-12.44 -18.96 -12.44 -50.95 0 -59.24 C12.44 -50.95 12.44 -18.96 0 0 Z" transform="translate(953.29 142.95) rotate(32.73)" />
    <path d="M0 0 C-12.44 -18.96 -12.44 -50.95 0 -59.24 C12.44 -50.95 12.44 -18.96 0 0 Z" transform="translate(953.29 142.95) rotate(65.45)" />
    <path d="M0 0 C-12.44 -18.96 -12.44 -50.95 0 -59.24 C12.44 -50.95 12.44 -18.96 0 0 Z" transform="translate(953.29 142.95) rotate(98.18)" />
    <path d="M0 0 C-12.44 -18.96 -12.44 -50.95 0 -59.24 C12.44 -50.95 12.44 -18.96 0 0 Z" transform="translate(953.29 142.95) rotate(130.91)" />
    <path d="M0 0 C-12.44 -18.96 -12.44 -50.95 0 -59.24 C12.44 -50.95 12.44 -18.96 0 0 Z" transform="translate(953.29 142.95) rotate(163.64)" />
    <path d="M0 0 C-12.44 -18.96 -12.44 -50.95 0 -59.24 C12.44 -50.95 12.44 -18.96 0 0 Z" transform="translate(953.29 142.95) rotate(196.36)" />
    <path d="M0 0 C-12.44 -18.96 -12.44 -50.95 0 -59.24 C12.44 -50.95 12.44 -18.96 0 0 Z" transform="translate(953.29 142.95) rotate(229.09)" />
    <path d="M0 0 C-12.44 -18.96 -12.44 -50.95 0 -59.24 C12.44 -50.95 12.44 -18.96 0 0 Z" transform="translate(953.29 142.95) rotate(261.82)" />
    <path d="M0 0 C-12.44 -18.96 -12.44 -50.95 0 -59.24 C12.44 -50.95 12.44 -18.96 0 0 Z" transform="translate(953.29 142.95) rotate(294.55)" />
    <path d="M0 0 C-12.44 -18.96 -12.44 -50.95 0 -59.24 C12.44 -50.95 12.44 -18.96 0 0 Z" transform="translate(953.29 142.95) rotate(327.27)" />
  </g>
  <circle cx="953.29" cy="142.95" r="17.77" fill="#E0B968" />
  </g>
  <path d="M221.30 236.50L225.50 242.50L186.20 339.70Q185.90 340.90 183.05 340.90Q180.20 340.90 179.60 339.70L179.60 339.70L105.50 177.40Q102.20 169.60 98.45 164.95Q94.70 160.30 90.20 158.20Q85.70 156.10 79.40 156.10L79.40 156.10Q78.50 156.10 78.50 154.30Q78.50 152.50 79.40 152.50L79.40 152.50Q83.60 152.50 87.95 152.80Q92.30 153.10 96.65 153.25Q101 153.40 104.90 153.40L104.90 153.40Q112.10 153.40 118.10 153.25Q124.10 153.10 129.05 152.80Q134 152.50 138.50 152.50L138.50 152.50Q139.40 152.50 139.40 154.30Q139.40 156.10 138.50 156.10L138.50 156.10Q127.10 156.10 122.15 159.85Q117.20 163.60 122 174.40L122 174.40L191 323.20L180.80 336.10L221.30 236.50ZM361.70 152.50L361.70 152.50Q362.60 152.50 362.60 154.30Q362.60 156.10 361.70 156.10L361.70 156.10Q352.40 156.10 345.35 160Q338.30 163.90 332.90 176.80L332.90 176.80L266.90 339.70Q266.60 340.90 263.75 340.90Q260.90 340.90 260.30 339.70L260.30 339.70L186.20 177.40Q181.10 165.70 175.40 160.90Q169.70 156.10 160.10 156.10L160.10 156.10Q159.20 156.10 159.20 154.30Q159.20 152.50 160.10 152.50L160.10 152.50Q164.30 152.50 168.65 152.80Q173 153.10 177.35 153.25Q181.70 153.40 185.60 153.40L185.60 153.40Q193.40 153.40 198.80 152.95Q204.20 152.50 208.70 152.50L208.70 152.50Q209.60 152.50 209.60 154.30Q209.60 156.10 208.70 156.10L208.70 156.10Q199.10 156.10 198.05 159.10Q197 162.10 202.70 174.40L202.70 174.40L271.70 323.20L261.50 336.10L326.90 175Q331.10 164.50 326.45 160.30Q321.80 156.10 305 156.10L305 156.10Q304.10 156.10 304.10 154.30Q304.10 152.50 305 152.50L305 152.50Q311.90 152.50 318.35 152.95Q324.80 153.40 335 153.40L335 153.40Q343.70 153.40 348.95 152.95Q354.20 152.50 361.70 152.50ZM226.70 242.50L222.50 236.50L247.40 175Q251.60 164.50 249.05 160.30Q246.50 156.10 235.70 156.10L235.70 156.10Q235.10 156.10 235.10 154.30Q235.10 152.50 235.70 152.50L235.70 152.50Q239 152.50 241.85 152.80Q244.70 153.10 248 153.25Q251.30 153.40 255.50 153.40L255.50 153.40Q263.90 153.40 269.30 152.95Q274.70 152.50 282.20 152.50L282.20 152.50Q282.80 152.50 282.80 154.30Q282.80 156.10 282.20 156.10L282.20 156.10Q272.90 156.10 265.70 160Q258.50 163.90 253.40 176.80L253.40 176.80L226.70 242.50ZM404.30 343.60L404.30 343.60Q386.60 343.60 374.75 335.35Q362.90 327.10 356.90 313.90Q350.90 300.70 350.90 286L350.90 286Q350.90 267.70 359.30 253.15Q367.70 238.60 381.95 230.05Q396.20 221.50 413 221.50L413 221.50Q430.10 221.50 438.50 230.80Q446.90 240.10 446.90 255.70L446.90 255.70Q446.90 259.60 446.15 261.40Q445.40 263.20 443.30 263.20L443.30 263.20L429.20 263.20Q430.70 244.60 423.35 236.05Q416 227.50 403.40 227.50L403.40 227.50Q386.60 227.50 377.30 240.25Q368 253 368 275.20L368 275.20Q368 292 373.40 305.35Q378.80 318.70 389.30 326.35Q399.80 334 414.80 334L414.80 334Q425.30 334 432.05 330.85Q438.80 327.70 445.10 323.80L445.10 323.80Q445.70 323.20 446.75 324.55Q447.80 325.90 447.20 326.80L447.20 326.80Q436.70 335.80 426.05 339.70Q415.40 343.60 404.30 343.60ZM432.20 263.20L364.10 263.50L363.80 259.90L432.20 258.70L432.20 263.20ZM588.80 224.20L588.80 224.20Q589.40 224.20 589.40 226Q589.40 227.80 588.80 227.80L588.80 227.80Q581.60 227.80 576.80 232Q572 236.20 566.90 248.50L566.90 248.50L529.40 339.70Q529.10 340.90 526.25 340.90Q523.40 340.90 522.80 339.70L522.80 339.70L481.70 249.10Q475.70 235.60 471.80 231.70Q467.90 227.80 462.50 227.80L462.50 227.80Q461.60 227.80 461.60 226Q461.60 224.20 462.50 224.20L462.50 224.20Q466.70 224.20 471.65 224.50Q476.60 224.80 480.80 224.80L480.80 224.80Q490.70 224.80 497.90 224.50Q505.10 224.20 511.10 224.20L511.10 224.20Q512 224.20 512 226Q512 227.80 511.10 227.80L511.10 227.80Q501.80 227.80 496.25 230.05Q490.70 232.30 494 239.50L494 239.50L533 324.70L526.10 333.40L561.80 246.70Q566 236.20 560.75 232Q555.50 227.80 538.70 227.80L538.70 227.80Q538.10 227.80 538.10 226Q538.10 224.20 538.70 224.20L538.70 224.20Q545.90 224.20 552.35 224.50Q558.80 224.80 569 224.80L569 224.80Q575.30 224.80 579.20 224.50Q583.10 224.20 588.80 224.20ZM655.70 343.60L655.70 343.60Q638 343.60 626.15 335.35Q614.30 327.10 608.30 313.90Q602.30 300.70 602.30 286L602.30 286Q602.30 267.70 610.70 253.15Q619.10 238.60 633.35 230.05Q647.60 221.50 664.40 221.50L664.40 221.50Q681.50 221.50 689.90 230.80Q698.30 240.10 698.30 255.70L698.30 255.70Q698.30 259.60 697.55 261.40Q696.80 263.20 694.70 263.20L694.70 263.20L680.60 263.20Q682.10 244.60 674.75 236.05Q667.40 227.50 654.80 227.50L654.80 227.50Q638 227.50 628.70 240.25Q619.40 253 619.40 275.20L619.40 275.20Q619.40 292 624.80 305.35Q630.20 318.70 640.70 326.35Q651.20 334 666.20 334L666.20 334Q676.70 334 683.45 330.85Q690.20 327.70 696.50 323.80L696.50 323.80Q697.10 323.20 698.15 324.55Q699.20 325.90 698.60 326.80L698.60 326.80Q688.10 335.80 677.45 339.70Q666.80 343.60 655.70 343.60ZM683.60 263.20L615.50 263.50L615.20 259.90L683.60 258.70L683.60 263.20ZM807.20 340L807.20 340Q806.30 340 806.30 338.20Q806.30 336.40 807.20 336.40L807.20 336.40Q819.50 336.40 823.10 332.50Q826.70 328.60 826.70 315.70L826.70 315.70L826.70 265.60Q826.70 247.30 819.80 238.90Q812.90 230.50 798.20 230.50L798.20 230.50Q786.80 230.50 774.95 238Q763.10 245.50 754.40 258.70L754.40 258.70L753.20 255.10Q767.30 236.50 780.20 228.40Q793.10 220.30 806.30 220.30L806.30 220.30Q822.80 220.30 831.80 229.15Q840.80 238 840.80 256.60L840.80 256.60L840.80 315.70Q840.80 328.60 844.25 332.50Q847.70 336.40 860.30 336.40L860.30 336.40Q861.20 336.40 861.20 338.20Q861.20 340 860.30 340L860.30 340Q855.20 340 848.30 339.70Q841.40 339.40 833.90 339.40L833.90 339.40Q826.40 339.40 819.35 339.70Q812.30 340 807.20 340ZM726.50 340L726.50 340Q725.60 340 725.60 338.20Q725.60 336.40 726.50 336.40L726.50 336.40Q738.80 336.40 742.40 332.50Q746 328.60 746 315.70L746 315.70L746 255.70Q746 245.50 743.60 240.85Q741.20 236.20 735.20 236.20L735.20 236.20Q732.20 236.20 728 237.40Q723.80 238.60 718.40 240.70L718.40 240.70Q717.20 241 716.45 239.50Q715.70 238 716.90 237.40L716.90 237.40L750.20 221.80Q750.80 221.50 751.70 221.50L751.70 221.50Q753.80 221.50 756.95 227.65Q760.10 233.80 760.10 245.50L760.10 245.50L760.10 315.70Q760.10 328.60 763.55 332.50Q767 336.40 779.60 336.40L779.60 336.40Q780.50 336.40 780.50 338.20Q780.50 340 779.60 340L779.60 340Q774.50 340 767.60 339.70Q760.70 339.40 753.20 339.40L753.20 339.40Q745.70 339.40 738.65 339.70Q731.60 340 726.50 340ZM921.20 342.10L921.20 342.10Q906.80 342.10 898.40 332.95Q890 323.80 890 305.50L890 305.50L890 259Q890 246.70 888.20 241.45Q886.40 236.20 881.30 236.20L881.30 236.20Q876.80 236.20 870.50 239.20L870.50 239.20Q869.30 239.80 868.55 238Q867.80 236.20 869 235.90L869 235.90L900.50 221.80Q901.10 221.50 901.70 221.50L901.70 221.50Q902.30 221.50 903.20 222.10Q904.10 222.70 904.10 223.60L904.10 223.60L904.10 296.50Q904.10 314.80 910.40 323.35Q916.70 331.90 929.30 331.90L929.30 331.90Q941.60 331.90 953.90 324.55Q966.20 317.20 975.50 304.30L975.50 304.30L977 307.60Q962.30 326.20 948.80 334.15Q935.30 342.10 921.20 342.10ZM983.90 223.60L983.90 223.60L983.90 308.50Q983.90 318.70 986.45 323.35Q989 328 995 328L995 328Q998.30 328 1002.20 326.80Q1006.10 325.60 1011.80 323.50L1011.80 323.50Q1013.30 322.90 1013.90 324.55Q1014.50 326.20 1013.30 326.80L1013.30 326.80L979.70 342.40Q979.10 342.70 978.50 342.70L978.50 342.70Q976.40 342.70 973.25 336.55Q970.10 330.40 970.10 318.70L970.10 318.70L970.10 259Q970.10 246.70 968.15 241.45Q966.20 236.20 961.10 236.20L961.10 236.20Q956.60 236.20 950.30 239.20L950.30 239.20Q949.10 239.80 948.50 238Q947.90 236.20 949.10 235.90L949.10 235.90L980.60 221.80Q981.20 221.50 981.50 221.50L981.50 221.50Q982.10 221.50 983 222.10Q983.90 222.70 983.90 223.60Z" fill="#4F5F4F" />
  <path d="M259.01 439.15L258.49 439.15L250.37 421.09L250.96 421.09L258.88 438.74L258.62 438.74L266.54 421.09L267.13 421.09L259.01 439.15Z M293.68 439.15L281.66 439.15L281.66 421.09L293.29 421.09L293.29 421.58L282.17 421.58L282.17 438.66L293.68 438.66L293.68 439.15ZM292.13 430.22L282.05 430.22L282.05 429.73L292.13 429.73L292.13 430.22Z M310.24 439.15L309.73 439.15L309.73 421.09L310.17 421.09L323.68 438.56L323.40 438.56L323.40 421.09L323.92 421.09L323.92 439.15L323.48 439.15L309.96 421.68L310.24 421.68L310.24 439.15Z M348.43 439.23L348.43 439.23Q345.20 439.23 343.33 437.32Q341.46 435.41 341.46 431.59L341.46 431.59L341.46 421.09L341.98 421.09L341.98 431.57Q341.98 435.18 343.67 436.96Q345.36 438.74 348.43 438.74L348.43 438.74Q351.50 438.74 353.19 436.96Q354.88 435.18 354.88 431.57L354.88 431.57L354.88 421.09L355.39 421.09L355.39 431.59Q355.39 435.41 353.52 437.32Q351.65 439.23 348.43 439.23Z M384.96 439.15L372.93 439.15L372.93 421.09L384.57 421.09L384.57 421.58L373.45 421.58L373.45 438.66L384.96 438.66L384.96 439.15ZM383.41 430.22L373.32 430.22L373.32 429.73L383.41 429.73L383.41 430.22Z  M425.64 439.23L425.64 439.23Q423.65 439.23 421.96 438.54Q420.27 437.86 419.02 436.62Q417.77 435.38 417.08 433.73Q416.38 432.08 416.38 430.12L416.38 430.12Q416.38 428.16 417.08 426.51Q417.77 424.86 419.02 423.62Q420.27 422.38 421.96 421.70Q423.65 421.01 425.64 421.01L425.64 421.01Q427.63 421.01 429.32 421.70Q431.01 422.38 432.26 423.62Q433.51 424.86 434.21 426.51Q434.90 428.16 434.90 430.12L434.90 430.12Q434.90 432.08 434.21 433.73Q433.51 435.38 432.26 436.62Q431.01 437.86 429.32 438.54Q427.63 439.23 425.64 439.23ZM425.64 438.74L425.64 438.74Q427.50 438.74 429.10 438.09Q430.70 437.45 431.88 436.27Q433.07 435.10 433.73 433.54Q434.39 431.98 434.39 430.12L434.39 430.12Q434.39 428.26 433.73 426.70Q433.07 425.14 431.88 423.97Q430.70 422.79 429.10 422.15Q427.50 421.50 425.64 421.50L425.64 421.50Q423.78 421.50 422.18 422.15Q420.58 422.79 419.40 423.97Q418.21 425.14 417.55 426.70Q416.89 428.26 416.89 430.12L416.89 430.12Q416.89 431.98 417.55 433.54Q418.21 435.10 419.40 436.27Q420.58 437.45 422.18 438.09Q423.78 438.74 425.64 438.74Z M451.21 439.15L450.69 439.15L450.69 421.09L456.81 421.09Q459.02 421.09 460.61 421.80Q462.20 422.51 463.05 423.83Q463.90 425.14 463.90 427.02L463.90 427.02Q463.90 428.88 463.05 430.21Q462.20 431.54 460.61 432.25Q459.02 432.96 456.81 432.96L456.81 432.96L450.97 432.96L451.21 432.73L451.21 439.15ZM451.21 421.37L451.21 432.67L450.97 432.47L456.86 432.47Q460.03 432.47 461.71 431.04Q463.38 429.60 463.38 427.02L463.38 427.02Q463.38 424.42 461.71 423.00Q460.03 421.58 456.86 421.58L456.86 421.58L450.97 421.58L451.21 421.37Z M491.87 439.15L479.84 439.15L479.84 421.09L491.48 421.09L491.48 421.58L480.36 421.58L480.36 438.66L491.87 438.66L491.87 439.15ZM490.32 430.22L480.23 430.22L480.23 429.73L490.32 429.73L490.32 430.22Z M508.43 439.15L507.91 439.15L507.91 421.09L514.03 421.09Q517.35 421.09 519.24 422.65Q521.12 424.21 521.12 427.02L521.12 427.02Q521.12 428.88 520.27 430.21Q519.42 431.54 517.83 432.25Q516.24 432.96 514.03 432.96L514.03 432.96L508.20 432.96L508.43 432.73L508.43 439.15ZM521.38 439.15L520.73 439.15L516.01 432.60L516.66 432.60L521.38 439.15ZM508.43 421.37L508.43 432.67L508.20 432.47L514.08 432.47Q517.25 432.47 518.93 431.04Q520.60 429.60 520.60 427.02L520.60 427.02Q520.60 424.42 518.93 423.00Q517.25 421.58 514.08 421.58L514.08 421.58L508.20 421.58L508.43 421.37Z M534.61 439.15L534.02 439.15L542.40 421.09L542.92 421.09L551.30 439.15L550.71 439.15L542.53 421.50L542.79 421.50L534.61 439.15ZM548.52 433.71L536.78 433.71L537.04 433.22L548.26 433.22L548.52 433.71Z M569.70 439.15L569.18 439.15L569.18 421.58L562.48 421.58L562.48 421.09L576.41 421.09L576.41 421.58L569.70 421.58L569.70 439.15Z M591.29 439.15L590.78 439.15L590.78 421.09L591.29 421.09L591.29 439.15Z M609.51 439.15L608.99 439.15L608.99 421.09L609.43 421.09L622.95 438.56L622.66 438.56L622.66 421.09L623.18 421.09L623.18 439.15L622.74 439.15L609.22 421.68L609.51 421.68L609.51 439.15Z M648.31 439.23L648.31 439.23Q646.29 439.23 644.59 438.54Q642.89 437.86 641.63 436.62Q640.36 435.38 639.66 433.73Q638.97 432.08 638.97 430.12L638.97 430.12Q638.97 428.16 639.66 426.51Q640.36 424.86 641.63 423.62Q642.89 422.38 644.59 421.70Q646.29 421.01 648.31 421.01L648.31 421.01Q650.14 421.01 651.75 421.58Q653.36 422.15 654.52 423.31L654.52 423.31L654.22 423.67Q652.98 422.48 651.49 421.99Q650.01 421.50 648.31 421.50L648.31 421.50Q646.42 421.50 644.81 422.16Q643.20 422.82 642.00 423.99Q640.80 425.17 640.14 426.73Q639.48 428.29 639.48 430.12L639.48 430.12Q639.48 431.95 640.14 433.51Q640.80 435.07 642.00 436.25Q643.20 437.42 644.81 438.08Q646.42 438.74 648.31 438.74L648.31 438.74Q650.01 438.74 651.52 438.22Q653.03 437.71 654.22 436.52L654.22 436.52L654.52 436.91Q653.36 438.07 651.75 438.65Q650.14 439.23 648.31 439.23ZM654.52 430.30L654.52 436.91L654.03 436.85L654.03 430.30L654.52 430.30Z  M693.38 439.23L693.38 439.23Q691.42 439.23 689.68 438.51Q687.93 437.78 687.03 436.67L687.03 436.67L687.39 436.34Q688.24 437.34 689.86 438.04Q691.47 438.74 693.35 438.74L693.35 438.74Q695.31 438.74 696.56 438.20Q697.81 437.65 698.42 436.74Q699.03 435.82 699.03 434.71L699.03 434.71Q699.03 433.42 698.41 432.64Q697.79 431.85 696.76 431.40Q695.72 430.95 694.51 430.65Q693.30 430.35 692.07 430.04Q690.85 429.73 689.82 429.23Q688.79 428.73 688.17 427.85Q687.55 426.97 687.55 425.55L687.55 425.55Q687.55 424.37 688.18 423.34Q688.81 422.30 690.14 421.66Q691.47 421.01 693.58 421.01L693.58 421.01Q695.03 421.01 696.43 421.47Q697.84 421.92 698.82 422.66L698.82 422.66L698.54 423.08Q697.45 422.28 696.14 421.89Q694.82 421.50 693.61 421.50L693.61 421.50Q691.73 421.50 690.49 422.06Q689.25 422.61 688.66 423.53Q688.06 424.44 688.06 425.58L688.06 425.58Q688.06 426.90 688.68 427.68Q689.30 428.47 690.33 428.92Q691.36 429.37 692.59 429.67Q693.82 429.97 695.03 430.29Q696.24 430.61 697.27 431.11Q698.30 431.62 698.92 432.47Q699.54 433.32 699.54 434.71L699.54 434.71Q699.54 435.90 698.90 436.93Q698.25 437.96 696.89 438.60Q695.52 439.23 693.38 439.23Z M720.00 439.15L719.49 439.15L719.49 432.83L719.61 433.22L712.13 421.09L712.73 421.09L719.85 432.62L719.64 432.62L726.76 421.09L727.35 421.09L719.87 433.22L720.00 432.83L720.00 439.15Z M746.29 439.23L746.29 439.23Q744.33 439.23 742.59 438.51Q740.85 437.78 739.94 436.67L739.94 436.67L740.30 436.34Q741.16 437.34 742.77 438.04Q744.38 438.74 746.26 438.74L746.26 438.74Q748.22 438.74 749.48 438.20Q750.73 437.65 751.33 436.74Q751.94 435.82 751.94 434.71L751.94 434.71Q751.94 433.42 751.32 432.64Q750.70 431.85 749.67 431.40Q748.64 430.95 747.43 430.65Q746.21 430.35 744.99 430.04Q743.76 429.73 742.73 429.23Q741.70 428.73 741.08 427.85Q740.46 426.97 740.46 425.55L740.46 425.55Q740.46 424.37 741.09 423.34Q741.72 422.30 743.05 421.66Q744.38 421.01 746.50 421.01L746.50 421.01Q747.94 421.01 749.35 421.47Q750.75 421.92 751.73 422.66L751.73 422.66L751.45 423.08Q750.37 422.28 749.05 421.89Q747.73 421.50 746.52 421.50L746.52 421.50Q744.64 421.50 743.40 422.06Q742.16 422.61 741.57 423.53Q740.98 424.44 740.98 425.58L740.98 425.58Q740.98 426.90 741.59 427.68Q742.21 428.47 743.25 428.92Q744.28 429.37 745.50 429.67Q746.73 429.97 747.94 430.29Q749.15 430.61 750.19 431.11Q751.22 431.62 751.84 432.47Q752.46 433.32 752.46 434.71L752.46 434.71Q752.46 435.90 751.81 436.93Q751.17 437.96 749.80 438.60Q748.43 439.23 746.29 439.23Z M772.11 439.15L771.60 439.15L771.60 421.58L764.89 421.58L764.89 421.09L778.82 421.09L778.82 421.58L772.11 421.58L772.11 439.15Z M805.21 439.15L793.19 439.15L793.19 421.09L804.83 421.09L804.83 421.58L793.71 421.58L793.71 438.66L805.21 438.66L805.21 439.15ZM803.67 430.22L793.58 430.22L793.58 429.73L803.67 429.73L803.67 430.22Z M821.78 439.15L821.26 439.15L821.26 421.09L821.70 421.09L830.29 436.11L830.06 436.11L838.62 421.09L839.06 421.09L839.06 439.15L838.55 439.15L838.55 421.84L838.75 421.84L830.32 436.60L830.01 436.60L821.54 421.84L821.78 421.84L821.78 439.15Z" fill="#B7AEA1" />
</svg>