<svg xmlns="http://www.w3.org/2000/svg" viewBox="0 0 512 512" width="512" height="512" role="img" aria-label="Wevenu">
  <rect width="512" height="512" rx="112.64" fill="#F5F4F2" />
  <path d="M 247.3 444.78 C 186.37 401.26 200.29 305.52 256 335.11" fill="none" stroke="#5D6F5D" stroke-width="12.19" stroke-linecap="round" />
  <path d="M0 0 C21.06 -26.11 19.15 -62.67 0 -87.04 C-19.15 -62.67 -21.06 -26.11 0 0 Z" fill="#6F8B6B" transform="translate(196.81 390.82) rotate(-28)" />
  
  <g fill="#FFFFFF" stroke="#DED7CB" stroke-width="1.4" stroke-linejoin="round">
    <path d="M0 0 C-36.56 -55.71 -36.56 -149.71 0 -174.08 C36.56 -149.71 36.56 -55.71 0 0 Z" transform="translate(256 262) rotate(0)" />
    <path d="M0 0 C-36.56 -55.71 -36.56 -149.71 0 -174.08 C36.56 -149.71 36.56 -55.71 0 0 Z" transform="translate(256 262) rotate(32.73)" />
    <path d="M0 0 C-36.56 -55.71 -36.56 -149.71 0 -174.08 C36.56 -149.71 36.56 -55.71 0 0 Z" transform="translate(256 262) rotate(65.45)" />
    <path d="M0 0 C-36.56 -55.71 -36.56 -149.71 0 -174.08 C36.56 -149.71 36.56 -55.71 0 0 Z" transform="translate(256 262) rotate(98.18)" />
    <path d="M0 0 C-36.56 -55.71 -36.56 -149.71 0 -174.08 C36.56 -149.71 36.56 -55.71 0 0 Z" transform="translate(256 262) rotate(130.91)" />
    <path d="M0 0 C-36.56 -55.71 -36.56 -149.71 0 -174.08 C36.56 -149.71 36.56 -55.71 0 0 Z" transform="translate(256 262) rotate(163.64)" />
    <path d="M0 0 C-36.56 -55.71 -36.56 -149.71 0 -174.08 C36.56 -149.71 36.56 -55.71 0 0 Z" transform="translate(256 262) rotate(196.36)" />
    <path d="M0 0 C-36.56 -55.71 -36.56 -149.71 0 -174.08 C36.56 -149.71 36.56 -55.71 0 0 Z" transform="translate(256 262) rotate(229.09)" />
    <path d="M0 0 C-36.56 -55.71 -36.56 -149.71 0 -174.08 C36.56 -149.71 36.56 -55.71 0 0 Z" transform="translate(256 262) rotate(261.82)" />
    <path d="M0 0 C-36.56 -55.71 -36.56 -149.71 0 -174.08 C36.56 -149.71 36.56 -55.71 0 0 Z" transform="translate(256 262) rotate(294.55)" />
    <path d="M0 0 C-36.56 -55.71 -36.56 -149.71 0 -174.08 C36.56 -149.71 36.56 -55.71 0 0 Z" transform="translate(256 262) rotate(327.27)" />
  </g>
  <circle cx="256" cy="262" r="52.22" fill="#D7C49C" />
</svg>